<svg xmlns="http://www.w3.org/2000/svg" viewBox="0 0 512 512" role="img" aria-label="Get On A Pod icon">
  <defs>
    <linearGradient id="bg" x1="0" x2="1" y1="0" y2="1">
      <stop offset="0%" stop-color="#F7F2EA" />
      <stop offset="100%" stop-color="#F1ECE5" />
    </linearGradient>
  </defs>
  <rect width="512" height="512" rx="128" fill="url(#bg)" />
  <circle cx="412" cy="116" r="46" fill="#D9C6B3" opacity="0.72" />
  <rect x="84" y="84" width="344" height="344" rx="104" fill="#0D1B2A" />
  <rect x="108" y="108" width="296" height="296" rx="88" fill="none" stroke="#B46A3C" stroke-width="16" />
  <rect x="308" y="120" width="84" height="40" rx="20" fill="#B46A3C" />
  <rect x="229" y="193" width="18" height="18" rx="5" fill="#F7FAFC" /><rect x="247" y="193" width="18" height="18" rx="5" fill="#F7FAFC" /><rect x="265" y="193" width="18" height="18" rx="5" fill="#F7FAFC" /><rect x="283" y="193" width="18" height="18" rx="5" fill="#F7FAFC" /><rect x="211" y="211" width="18" height="18" rx="5" fill="#F7FAFC" /><rect x="211" y="229" width="18" height="18" rx="5" fill="#F7FAFC" /><rect x="211" y="247" width="18" height="18" rx="5" fill="#F7FAFC" /><rect x="247" y="247" width="18" height="18" rx="5" fill="#F7FAFC" /><rect x="265" y="247" width="18" height="18" rx="5" fill="#F7FAFC" /><rect x="283" y="247" width="18" height="18" rx="5" fill="#F7FAFC" /><rect x="211" y="265" width="18" height="18" rx="5" fill="#F7FAFC" /><rect x="283" y="265" width="18" height="18" rx="5" fill="#F7FAFC" /><rect x="211" y="283" width="18" height="18" rx="5" fill="#F7FAFC" /><rect x="283" y="283" width="18" height="18" rx="5" fill="#F7FAFC" /><rect x="229" y="301" width="18" height="18" rx="5" fill="#F7FAFC" /><rect x="247" y="301" width="18" height="18" rx="5" fill="#F7FAFC" /><rect x="265" y="301" width="18" height="18" rx="5" fill="#F7FAFC" /><rect x="283" y="301" width="18" height="18" rx="5" fill="#F7FAFC" />
</svg>
